<?xml version="1.0" encoding="UTF-8"?>
<svg xmlns="http://www.w3.org/2000/svg" viewBox="0 0 462.15 439.83">
  <defs>
    <style>
      .cls-1, .cls-2 {
        opacity: .7;
      }

      .cls-3, .cls-4, .cls-5, .cls-6, .cls-7, .cls-8, .cls-9, .cls-10, .cls-11, .cls-12, .cls-2, .cls-13, .cls-14, .cls-15, .cls-16 {
        stroke-width: 0px;
      }

      .cls-17, .cls-14 {
        opacity: .2;
      }

      .cls-4, .cls-15 {
        opacity: .3;
      }

      .cls-5 {
        fill: #37474f;
      }

      .cls-6 {
        fill: #e0e0e0;
      }

      .cls-7 {
        opacity: .5;
      }

      .cls-7, .cls-10, .cls-12, .cls-2, .cls-14, .cls-15 {
        fill: #fff;
      }

      .cls-8 {
        fill: #f5f5f5;
      }

      .cls-9 {
        fill: #f0f0f0;
      }

      .cls-11 {
        fill: #263238;
      }

      .cls-12 {
        opacity: .1;
      }

      .cls-13 {
        fill: #455a64;
      }

      .cls-16 {
        fill: #ba68c8;
      }
    </style>
  </defs>
  <g id="Floor">
    <path id="Floor-2" data-name="Floor" class="cls-8" d="m67.68,212.08c-90.24,52.1-90.24,136.57,0,188.67,90.24,52.1,236.55,52.1,326.79,0,90.24-52.1,90.24-136.57,0-188.67-90.24-52.1-236.55-52.1-326.79,0Z"/>
  </g>
  <g id="Shadow">
    <path id="Shadow-2" data-name="Shadow" class="cls-6" d="m260.41,408.31c-3.33,0-6.38-.62-8.82-1.8l-171.76-82.93c-1.47-.7-2.67-1.62-3.46-2.66h0c-1.3-1.71-1.42-4.04-.31-5.87h0c.7-1.14,1.86-2.2,3.36-3.06l124.05-71.62c2.37-1.38,5.36-2.12,8.64-2.12,3.77,0,7.44,1.04,10.07,2.84l142.57,97.98c2.59,1.76,4.01,4.2,3.88,6.67-.08,2.38-1.64,4.61-4.38,6.2l-93.28,53.86c-2.77,1.6-6.62,2.51-10.57,2.51Z"/>
  </g>
  <g id="Shopping_Cart" data-name="Shopping Cart">
    <g id="Cart">
      <g>
        <path class="cls-11" d="m221.42,71.45l-4.11,2.38-6.75-27.52c-1.93-7.78-9.42-17.77-16.39-21.77l-3.76-2.18c-1.91-1.11-5.27-1.11-7.18,0l-11.47,6.58c-1.09.64-2.47.25-3.11-.84-.62-1.07-.25-2.47.84-3.09l11.47-6.6c3.29-1.89,8.44-1.89,11.71,0l3.78,2.18c8,4.62,16.31,15.66,18.53,24.62l6.44,26.23Z"/>
        <g>
          <path class="cls-16" d="m86.45,85.02l-7.39-12.8,92.08-53.19h0c.96-.76,2.41-.74,4.01.18,2.89,1.67,5.23,5.72,5.23,9.05,0,1.85-.71,3.12-1.84,3.57h0s-92.08,53.19-92.08,53.19Z"/>
          <path class="cls-12" d="m82.1,77.5l96.05-55.44c-.71-.98-1.54-1.84-2.45-2.48l-95.29,55,1.68,2.92Z"/>
          <path class="cls-16" d="m79.05,72.22c1.94-1.12,5.17.83,7.21,4.37,2.04,3.53,2.12,7.31.18,8.43-1.94,1.12-5.17-.83-7.21-4.37-2.04-3.53-2.12-7.31-.18-8.43Z"/>
          <path class="cls-4" d="m79.05,72.22c1.94-1.12,5.17.83,7.21,4.37,2.04,3.53,2.12,7.31.18,8.43-1.94,1.12-5.17-.83-7.21-4.37-2.04-3.53-2.12-7.31-.18-8.43Z"/>
        </g>
        <path class="cls-11" d="m103.54,140.35l-4.11,2.36-6.75-27.52c-1.93-7.78-9.44-17.75-16.38-21.75l-3.78-2.2c-1.96-1.13-3.09-2.84-3.09-4.69s1.13-3.56,3.09-4.69l8.19-4.67c.6-.35,1.6.25,2.22,1.35.64,1.09.65,2.25.05,2.6h-.02l-8.17,4.67c-.65.36-.8.69-.82.75.02.07.16.38.82.76l3.78,2.18c8,4.62,16.29,15.66,18.51,24.6l6.46,26.25Z"/>
      </g>
      <g>
        <g>
          <path class="cls-6" d="m227.27,355.3c.06.03.11.06.18.08-6.24,8.1-16.41,10.42-18.7,9.35-1.84-.85-2.93-3.04-1.53-4.35.64-.6,1.76-1.22,2.8-2.09,3.06-2.54,4.07-6.96,4.35-10.41l12.89,7.42Z"/>
          <g class="cls-17">
            <path class="cls-3" d="m227.27,355.3c.06.03.11.06.18.08-6.24,8.1-16.41,10.42-18.7,9.35-1.84-.85-2.93-3.04-1.53-4.35.64-.6,1.76-1.22,2.8-2.09,3.06-2.54,4.07-6.96,4.35-10.41l12.89,7.42Z"/>
          </g>
          <g>
            <path class="cls-5" d="m220.85,367.81c.04-6.52-4.49-14.48-10.11-17.78-2.95-1.73-5.61-1.82-7.49-.58h0l-6.92,3.89,14.51,25.02,6.86-3.89v-.02c1.91-1.03,3.13-3.32,3.15-6.65Z"/>
            <path class="cls-13" d="m203.55,354.12c5.63,3.3,10.16,11.26,10.11,17.78-.04,6.52-4.64,9.14-10.26,5.84-5.63-3.3-10.16-11.26-10.11-17.78.04-6.52,4.64-9.14,10.26-5.84Z"/>
            <path class="cls-11" d="m200.02,363.9c.02-2.55,1.57-3.71,3.48-2.6,1.9,1.12,3.44,4.09,3.42,6.64-.02,2.55-1.57,3.71-3.48,2.6-1.91-1.12-3.44-4.09-3.42-6.64Z"/>
          </g>
          <g>
            <path class="cls-8" d="m209.56,345.11s.67,12.04-4.84,16.64c-1.04.87-2.16,1.49-2.81,2.09-1.4,1.31-.3,3.5,1.54,4.35,2.67,1.24,16.37-2.28,21.71-14.1l-15.6-8.98Z"/>
            <path class="cls-11" d="m203.72,364.63c.58.29,1.08,1.05,1.11,1.7.04.65-.4.94-.98.64-.58-.29-1.08-1.05-1.11-1.7-.04-.65.4-.94.98-.64Z"/>
          </g>
        </g>
        <g>
          <path class="cls-6" d="m157.25,321.31c.06.03.17.09.17.09-6.24,8.1-16.4,10.4-18.69,9.34-1.84-.85-2.93-3.04-1.53-4.35.64-.6,1.76-1.22,2.8-2.09,3.06-2.54,4.07-6.96,4.35-10.41l12.89,7.42Z"/>
          <g class="cls-17">
            <path class="cls-3" d="m157.25,321.31c.06.03.17.09.17.09-6.24,8.1-16.4,10.4-18.69,9.34-1.84-.85-2.93-3.04-1.53-4.35.64-.6,1.76-1.22,2.8-2.09,3.06-2.54,4.07-6.96,4.35-10.41l12.89,7.42Z"/>
          </g>
          <g>
            <path class="cls-5" d="m150.83,333.82c.04-6.52-4.49-14.48-10.11-17.78-2.95-1.73-5.61-1.82-7.49-.58h0l-6.92,3.89,14.51,25.02,6.86-3.89v-.02c1.91-1.03,3.13-3.32,3.15-6.65Z"/>
            <path class="cls-13" d="m133.53,320.12c5.63,3.3,10.16,11.26,10.11,17.78-.04,6.52-4.64,9.14-10.26,5.84-5.63-3.3-10.16-11.26-10.11-17.78.04-6.52,4.64-9.14,10.26-5.84Z"/>
            <path class="cls-11" d="m130.01,329.91c.02-2.55,1.57-3.71,3.48-2.6,1.9,1.12,3.44,4.09,3.42,6.64-.02,2.55-1.57,3.71-3.48,2.6-1.91-1.12-3.44-4.09-3.42-6.64Z"/>
          </g>
          <g>
            <path class="cls-8" d="m139.54,311.12s.67,12.04-4.84,16.64c-1.04.87-2.16,1.49-2.81,2.09-1.4,1.31-.3,3.5,1.54,4.35,2.67,1.24,16.37-2.28,21.71-14.1l-15.6-8.98Z"/>
            <path class="cls-11" d="m133.7,330.63c.58.29,1.08,1.05,1.11,1.7.04.65-.4.94-.98.64-.58-.29-1.08-1.05-1.11-1.7-.04-.65.4-.94.98-.64Z"/>
          </g>
        </g>
        <g>
          <path class="cls-6" d="m327.37,297.86c-6.25,8.07-16.4,10.4-18.69,9.33-1.84-.85-2.93-3.04-1.53-4.35.64-.6,1.76-1.22,2.8-2.09,3.06-2.54,4.07-6.96,4.35-10.41l12.12,6.97.77.45.17.1Z"/>
          <g class="cls-17">
            <path class="cls-3" d="m327.37,297.86c-6.25,8.07-16.4,10.4-18.69,9.33-1.84-.85-2.93-3.04-1.53-4.35.64-.6,1.76-1.22,2.8-2.09,3.06-2.54,4.07-6.96,4.35-10.41l12.12,6.97.77.45.17.1Z"/>
          </g>
          <g>
            <path class="cls-5" d="m320.78,310.27c.04-6.52-4.49-14.48-10.11-17.78-2.95-1.73-5.61-1.82-7.49-.58h0l-6.92,3.89,14.51,25.02,6.86-3.89v-.02c1.91-1.03,3.13-3.32,3.15-6.65Z"/>
            <path class="cls-13" d="m303.48,296.57c5.63,3.3,10.16,11.26,10.11,17.78-.04,6.52-4.64,9.14-10.26,5.84-5.63-3.3-10.16-11.26-10.11-17.78.04-6.52,4.64-9.14,10.26-5.84Z"/>
            <path class="cls-11" d="m299.95,306.36c.02-2.55,1.57-3.71,3.48-2.6,1.9,1.12,3.44,4.09,3.42,6.64-.02,2.55-1.57,3.71-3.48,2.59-1.91-1.12-3.44-4.09-3.42-6.64Z"/>
          </g>
          <g>
            <path class="cls-8" d="m309.49,287.57s.67,12.04-4.84,16.64c-1.04.87-2.16,1.49-2.81,2.09-1.4,1.31-.3,3.5,1.54,4.35,2.67,1.24,16.37-2.28,21.71-14.1l-15.6-8.98Z"/>
            <path class="cls-11" d="m303.64,307.08c.58.29,1.08,1.05,1.11,1.7.04.65-.4.94-.98.64-.58-.29-1.08-1.05-1.11-1.7-.04-.65.4-.94.98-.64Z"/>
          </g>
        </g>
        <g>
          <path class="cls-6" d="m267.07,257.91c.06.03.17.09.17.09-6.24,8.1-16.4,10.4-18.68,9.34-1.84-.85-2.93-3.04-1.53-4.35.64-.6,1.76-1.22,2.8-2.09,3.06-2.54,4.07-6.96,4.35-10.41l12.89,7.42Z"/>
          <g class="cls-17">
            <path class="cls-3" d="m267.07,257.91c.06.03.17.09.17.09-6.24,8.1-16.4,10.4-18.68,9.34-1.84-.85-2.93-3.04-1.53-4.35.64-.6,1.76-1.22,2.8-2.09,3.06-2.54,4.07-6.96,4.35-10.41l12.89,7.42Z"/>
          </g>
          <g>
            <path class="cls-5" d="m260.65,270.42c.04-6.52-4.49-14.48-10.11-17.78-2.95-1.73-5.61-1.82-7.49-.58h0l-6.92,3.89,14.51,25.02,6.86-3.89v-.02c1.92-1.03,3.13-3.32,3.15-6.65Z"/>
            <path class="cls-13" d="m243.35,256.72c5.63,3.3,10.16,11.26,10.11,17.78-.04,6.52-4.64,9.14-10.26,5.84-5.63-3.3-10.16-11.26-10.11-17.78.04-6.52,4.64-9.14,10.26-5.84Z"/>
            <path class="cls-11" d="m239.83,266.51c.02-2.55,1.57-3.71,3.48-2.6,1.9,1.12,3.44,4.09,3.42,6.64-.02,2.55-1.57,3.71-3.48,2.59-1.91-1.12-3.44-4.09-3.42-6.64Z"/>
          </g>
          <g>
            <path class="cls-8" d="m249.37,247.72s.67,12.04-4.84,16.64c-1.04.87-2.16,1.49-2.81,2.09-1.4,1.31-.3,3.5,1.54,4.35,2.67,1.24,16.37-2.28,21.71-14.1l-15.6-8.98Z"/>
            <path class="cls-11" d="m243.52,267.23c.58.29,1.08,1.05,1.11,1.7.04.65-.4.94-.98.64-.58-.29-1.08-1.05-1.12-1.7-.04-.65.4-.94.98-.64Z"/>
          </g>
        </g>
        <path class="cls-13" d="m262.46,370.55c-4.44,0-8.83-.84-12.36-2.54l-122.43-59.12c-12.5-6.03-20.93-18.38-22-32.22l-12.24-158.08,5.53-.43,12.24,158.08c.92,11.88,8.15,22.47,18.88,27.65l122.43,59.12c6.05,2.92,16.09,2.55,21.91-.81l67.98-39.25c2.34-1.35,3.67-3.1,3.74-4.91.07-1.82-1.12-3.66-3.35-5.19l-103.15-70.89c-9.79-6.73-15.94-17.38-16.85-29.23l-12.47-161.12,5.53-.43,12.47,161.12c.79,10.17,6.06,19.31,14.46,25.08l103.15,70.89c3.8,2.61,5.89,6.25,5.75,9.98-.15,3.73-2.52,7.2-6.51,9.5l-67.98,39.25c-4.06,2.34-9.44,3.54-14.75,3.54Z"/>
      </g>
      <g>
        <g>
          <path class="cls-16" d="m353.02,259l-126.51-86.94c-1.55-1.06-3.92-1.71-6.33-1.71-2.05,0-3.96.44-5.36,1.26l-110.09,63.56c-.82.47-1.2.9-1.33,1.11.15.19.56.59,1.41,1l152.42,73.6c1.52.73,3.58,1.14,5.82,1.14,2.67,0,5.32-.6,7.07-1.61l82.77-47.79c.94-.55,1.56-1.23,1.58-1.75.03-.52-.55-1.25-1.44-1.86Zm-41.25,20.77l-15.24,8.81c-2.21,1.28-5.82,1.31-8.06.09l-38.56-21.14c-.21-.12-.41-.24-.58-.38.16-.13.34-.25.54-.36l17.24-9.96c2.21-1.28,5.78-1.25,7.97.06l36.73,21.99c.23.14.43.28.61.43-.18.17-.41.31-.65.45Zm-29.07,16.79l-15.27,8.81c-2.21,1.28-5.85,1.4-8.15.27l-40.78-20.1c-.19-.09-.37-.2-.54-.31.12-.09.26-.18.4-.26l17.18-9.92c2.21-1.28,5.83-1.33,8.08-.13l39.01,20.93c.21.11.4.23.57.36-.16.12-.32.23-.51.34Zm-162.49-59.97l21.02-12.14c2.21-1.29,5.83-1.34,8.08-.13l33.11,17.77c.21.11.4.23.57.36-.16.12-.32.23-.51.34l-19.34,11.17c-2.21,1.28-5.86,1.4-8.16.27l-34.64-17.08c-.19-.09-.38-.2-.55-.31.12-.08.26-.17.4-.25Zm36.32-20.97l21.25-12.26c2.21-1.28,5.78-1.25,7.97.06l31.15,18.65c.23.14.43.28.61.44-.19.17-.41.31-.65.45l-19.5,11.25c-2.21,1.28-5.83,1.32-8.07.09l-32.72-17.94c-.21-.12-.41-.24-.58-.38.16-.13.34-.25.54-.36Zm104.99,34.07l-17.49,10.1c-2.21,1.28-5.82,1.32-8.06.09l-32.72-17.94c-.21-.12-.41-.24-.58-.38.16-.13.33-.25.53-.36l19.25-11.11c2.21-1.28,5.78-1.25,7.97.06l31.14,18.65c.23.14.43.28.61.44-.18.17-.41.31-.65.45Zm31.97-18.45l-17.56,10.15c-2.21,1.28-5.77,1.23-7.95-.1l-30.74-18.83c-.23-.14-.44-.3-.62-.45.19-.18.43-.33.68-.48l19.39-11.19c2.21-1.28,5.73-1.16,7.84.26l29.14,19.55c.24.16.44.33.63.52-.22.21-.49.41-.8.58Zm-42.07-28.24l-19.65,11.35c-2.21,1.28-5.77,1.23-7.95-.1l-30.74-18.82c-.24-.15-.44-.3-.63-.45.2-.18.43-.34.69-.49l21.48-12.39c2.21-1.28,5.73-1.16,7.84.27l29.13,19.55c.24.16.44.32.63.51-.22.21-.49.41-.8.58Zm-82.12,57.78l19.11-11.03c2.21-1.28,5.83-1.33,8.07-.13l33.12,17.77c.21.11.4.23.57.37-.16.12-.32.23-.51.33l-17.44,10.07c-2.21,1.28-5.86,1.4-8.16.27l-34.63-17.08c-.19-.09-.37-.19-.54-.31.12-.08.26-.17.4-.25Zm111.46-11.75c.19-.18.43-.33.68-.48l17.31-9.99c2.22-1.28,5.73-1.17,7.85.26l34.39,23.09c.24.16.44.33.63.52-.22.21-.49.41-.8.58l-15.22,8.79c-2.21,1.28-5.76,1.23-7.95-.1l-36.27-22.21c-.24-.15-.44-.3-.63-.45Z"/>
          <g class="cls-1">
            <path class="cls-10" d="m353.02,259l-126.51-86.94c-1.55-1.06-3.92-1.71-6.33-1.71-2.05,0-3.96.44-5.36,1.26l-110.09,63.56c-.82.47-1.2.9-1.33,1.11.15.19.56.59,1.41,1l152.42,73.6c1.52.73,3.58,1.14,5.82,1.14,2.67,0,5.32-.6,7.07-1.61l82.77-47.79c.94-.55,1.56-1.23,1.58-1.75.03-.52-.55-1.25-1.44-1.86Zm-41.25,20.77l-15.24,8.81c-2.21,1.28-5.82,1.31-8.06.09l-38.56-21.14c-.21-.12-.41-.24-.58-.38.16-.13.34-.25.54-.36l17.24-9.96c2.21-1.28,5.78-1.25,7.97.06l36.73,21.99c.23.14.43.28.61.43-.18.17-.41.31-.65.45Zm-29.07,16.79l-15.27,8.81c-2.21,1.28-5.85,1.4-8.15.27l-40.78-20.1c-.19-.09-.37-.2-.54-.31.12-.09.26-.18.4-.26l17.18-9.92c2.21-1.28,5.83-1.33,8.08-.13l39.01,20.93c.21.11.4.23.57.36-.16.12-.32.23-.51.34Zm-162.49-59.97l21.02-12.14c2.21-1.29,5.83-1.34,8.08-.13l33.11,17.77c.21.11.4.23.57.36-.16.12-.32.23-.51.34l-19.34,11.17c-2.21,1.28-5.86,1.4-8.16.27l-34.64-17.08c-.19-.09-.38-.2-.55-.31.12-.08.26-.17.4-.25Zm36.32-20.97l21.25-12.26c2.21-1.28,5.78-1.25,7.97.06l31.15,18.65c.23.14.43.28.61.44-.19.17-.41.31-.65.45l-19.5,11.25c-2.21,1.28-5.83,1.32-8.07.09l-32.72-17.94c-.21-.12-.41-.24-.58-.38.16-.13.34-.25.54-.36Zm104.99,34.07l-17.49,10.1c-2.21,1.28-5.82,1.32-8.06.09l-32.72-17.94c-.21-.12-.41-.24-.58-.38.16-.13.33-.25.53-.36l19.25-11.11c2.21-1.28,5.78-1.25,7.97.06l31.14,18.65c.23.14.43.28.61.44-.18.17-.41.31-.65.45Zm31.97-18.45l-17.56,10.15c-2.21,1.28-5.77,1.23-7.95-.1l-30.74-18.83c-.23-.14-.44-.3-.62-.45.19-.18.43-.33.68-.48l19.39-11.19c2.21-1.28,5.73-1.16,7.84.26l29.14,19.55c.24.16.44.33.63.52-.22.21-.49.41-.8.58Zm-42.07-28.24l-19.65,11.35c-2.21,1.28-5.77,1.23-7.95-.1l-30.74-18.82c-.24-.15-.44-.3-.63-.45.2-.18.43-.34.69-.49l21.48-12.39c2.21-1.28,5.73-1.16,7.84.27l29.13,19.55c.24.16.44.32.63.51-.22.21-.49.41-.8.58Zm-82.12,57.78l19.11-11.03c2.21-1.28,5.83-1.33,8.07-.13l33.12,17.77c.21.11.4.23.57.37-.16.12-.32.23-.51.33l-17.44,10.07c-2.21,1.28-5.86,1.4-8.16.27l-34.63-17.08c-.19-.09-.37-.19-.54-.31.12-.08.26-.17.4-.25Zm111.46-11.75c.19-.18.43-.33.68-.48l17.31-9.99c2.22-1.28,5.73-1.17,7.85.26l34.39,23.09c.24.16.44.33.63.52-.22.21-.49.41-.8.58l-15.22,8.79c-2.21,1.28-5.76,1.23-7.95-.1l-36.27-22.21c-.24-.15-.44-.3-.63-.45Z"/>
          </g>
          <path class="cls-16" d="m229.59,263.6l-33.12-17.77c-2.25-1.2-5.86-1.15-8.07.13l-19.11,11.03c-2.03,1.17-2.14,2.89-.4,4.04.12-.08.26-.17.4-.25l19.11-11.03c2.21-1.28,5.83-1.33,8.07-.13l33.12,17.77c.21.11.4.23.57.37,1.69-1.28,1.49-3.06-.57-4.16Zm111.39-5.48l-34.39-23.09c-2.13-1.42-5.63-1.54-7.85-.26l-17.31,9.99c-1.97,1.14-2.21,2.94-.68,4.27.19-.18.43-.33.68-.48l17.31-9.99c2.22-1.28,5.73-1.17,7.85.26l34.39,23.09c.24.16.44.33.63.52,1.4-1.29,1.19-3.08-.63-4.31Zm-158.55-19.82l-33.11-17.77c-2.26-1.21-5.87-1.15-8.08.13l-21.02,12.14c-2.02,1.17-2.14,2.89-.4,4.04.12-.08.26-.17.4-.25l21.02-12.14c2.21-1.29,5.83-1.34,8.08-.13l33.11,17.77c.21.11.4.23.57.36,1.68-1.27,1.49-3.05-.57-4.15Zm100.21,53.77l-39.01-20.92c-2.26-1.21-5.87-1.16-8.08.12l-17.18,9.92c-2.03,1.17-2.15,2.9-.4,4.05.12-.09.26-.18.4-.26l17.18-9.92c2.21-1.28,5.83-1.33,8.08-.13l39.01,20.93c.21.11.4.23.57.36,1.68-1.27,1.49-3.05-.57-4.15Zm29.17-16.97l-36.73-21.99c-2.19-1.3-5.76-1.34-7.97-.06l-17.24,9.95c-2,1.16-2.17,2.93-.54,4.15.16-.13.34-.25.54-.36l17.24-9.96c2.21-1.28,5.78-1.25,7.97.06l36.73,21.99c.23.14.43.28.61.43,1.54-1.28,1.34-3.07-.61-4.23Zm-94.91-56.82l-31.15-18.65c-2.19-1.31-5.76-1.34-7.97-.06l-21.25,12.26c-2,1.16-2.17,2.92-.54,4.15.16-.13.34-.25.54-.36l21.25-12.26c2.21-1.28,5.78-1.25,7.97.06l31.15,18.65c.23.14.43.28.61.44,1.54-1.28,1.34-3.07-.61-4.24Zm34.68-20.15l-29.13-19.55c-2.12-1.42-5.63-1.54-7.84-.27l-21.48,12.4c-1.98,1.14-2.22,2.94-.69,4.27.2-.18.43-.34.69-.49l21.48-12.39c2.21-1.28,5.73-1.16,7.84.27l29.13,19.55c.24.16.44.32.63.51,1.41-1.29,1.2-3.08-.63-4.3Zm9.98,46.88l-31.14-18.64c-2.19-1.31-5.76-1.34-7.97-.06l-19.25,11.11c-2,1.16-2.16,2.93-.53,4.15.16-.13.33-.25.53-.36l19.25-11.11c2.21-1.28,5.78-1.25,7.97.06l31.14,18.65c.23.14.43.28.61.44,1.54-1.27,1.34-3.06-.61-4.24Zm32.09-18.65l-29.14-19.55c-2.12-1.42-5.63-1.54-7.84-.27l-19.39,11.19c-1.98,1.14-2.22,2.95-.68,4.27.19-.18.43-.33.68-.48l19.39-11.19c2.21-1.28,5.73-1.16,7.84.26l29.14,19.55c.24.16.44.33.63.52,1.4-1.29,1.19-3.08-.63-4.3Z"/>
          <path class="cls-15" d="m183,242.45c1.68-1.27,1.49-3.05-.57-4.15l-33.11-17.77c-2.26-1.21-5.87-1.15-8.08.13l-21.02,12.14c-2.02,1.17-2.14,2.89-.4,4.04.12-.08.26-.17.4-.25l21.02-12.13c2.21-1.29,5.83-1.34,8.08-.13l33.11,17.77c.21.11.4.23.57.36Zm-27.01-26.47c.16-.13.34-.25.54-.36l21.25-12.26c2.21-1.28,5.78-1.25,7.97.06l31.15,18.65c.23.14.43.28.61.44,1.54-1.28,1.34-3.07-.61-4.24l-31.15-18.65c-2.19-1.31-5.76-1.34-7.97-.06l-21.25,12.26c-2,1.16-2.17,2.92-.54,4.15Zm80.61,6.02c.19-.18.43-.33.68-.48l19.39-11.19c2.21-1.28,5.73-1.16,7.84.26l29.14,19.55c.24.16.44.33.63.52,1.4-1.29,1.19-3.08-.63-4.3l-29.14-19.55c-2.12-1.42-5.63-1.54-7.84-.27l-19.39,11.19c-1.98,1.14-2.22,2.95-.68,4.27Zm-6.19,4.37c-2.19-1.31-5.76-1.34-7.97-.06l-19.25,11.11c-2,1.16-2.16,2.93-.53,4.15.16-.13.33-.25.53-.36l19.25-11.11c2.21-1.28,5.78-1.25,7.97.06l31.14,18.65c.23.14.43.28.61.44,1.54-1.27,1.34-3.06-.61-4.24l-31.14-18.64Zm-37.28-31.88l21.48-12.39c2.21-1.28,5.73-1.16,7.84.27l29.13,19.55c.24.16.44.32.63.51,1.41-1.29,1.2-3.08-.63-4.3l-29.13-19.55c-2.12-1.42-5.63-1.54-7.84-.27l-21.48,12.4c-1.98,1.14-2.22,2.94-.69,4.27.2-.18.43-.34.69-.49Zm118.68,80.61l-36.73-21.99c-2.19-1.3-5.76-1.34-7.97-.06l-17.24,9.95c-2,1.16-2.17,2.93-.54,4.15.16-.13.34-.25.54-.36l17.24-9.96c2.21-1.28,5.78-1.25,7.97.06l36.73,21.99c.23.14.43.28.61.43,1.54-1.28,1.34-3.07-.61-4.23Zm-81.64-7.33c1.69-1.28,1.49-3.06-.57-4.16l-33.12-17.77c-2.25-1.2-5.86-1.15-8.07.13l-19.11,11.03c-2.03,1.17-2.14,2.89-.4,4.04.12-.08.26-.17.4-.25l19.11-11.03c2.21-1.28,5.83-1.33,8.07-.13l33.12,17.77c.21.11.4.23.57.37Zm110.81-9.64l-34.39-23.09c-2.13-1.42-5.63-1.54-7.85-.26l-17.31,9.99c-1.97,1.14-2.21,2.94-.68,4.27.19-.18.43-.33.68-.48l17.31-9.99c2.22-1.28,5.73-1.17,7.85.26l34.39,23.09c.24.16.44.33.63.52,1.4-1.29,1.19-3.08-.63-4.31Zm-58.34,33.94l-39.01-20.92c-2.26-1.21-5.87-1.16-8.08.12l-17.18,9.92c-2.03,1.17-2.15,2.9-.4,4.05.12-.09.26-.18.4-.26l17.18-9.92c2.21-1.28,5.83-1.33,8.08-.13l39.01,20.93c.21.11.4.23.57.36,1.68-1.27,1.49-3.05-.57-4.15Z"/>
        </g>
        <g>
          <g>
            <path class="cls-16" d="m221.19,168.45l-.07-1.78-4.97-116.47c-.52-.06-1.05-.1-1.57-.1-1.85,0-3.59.41-4.88,1.16l-114.02,65.84c-1.16.66-1.43,1.24-1.44,1.34l8.71,113.5.46,4.34c.13-.21.51-.64,1.33-1.11l110.09-63.56c1.4-.81,3.3-1.26,5.36-1.26.37,0,.73.02,1.09.05l-.08-1.94Zm-16.45-40.88l-21.82,12.61c-.37.21-.73.36-1.07.44-.06-.27-.11-.57-.13-.9l-1.13-20.65c-.13-2.55,1.54-5.65,3.76-6.93l22.09-12.75c.36-.2.7-.35,1.04-.43.07.27.11.56.13.89l.94,20.8c.11,2.55-1.59,5.65-3.8,6.93Zm1.17-65.29l.93,20.8c.11,2.55-1.59,5.66-3.8,6.94l-22.15,12.79c-.37.21-.73.36-1.07.44-.06-.27-.11-.57-.13-.9l-1.13-20.65c-.13-2.54,1.54-5.65,3.76-6.93l22.43-12.95c.35-.2.7-.35,1.04-.43.07.27.11.56.13.89Zm-59.19,71.58l22.09-12.75c.37-.21.74-.36,1.08-.44.07.27.12.57.14.9l1.16,20.62c.15,2.55-1.53,5.65-3.75,6.93l-21.84,12.61c-.38.22-.76.37-1.11.45-.07-.27-.13-.57-.15-.9l-1.32-20.48c-.17-2.55,1.49-5.65,3.7-6.93Zm21.2-49.62l1.17,20.62c.14,2.55-1.54,5.66-3.75,6.94l-22.14,12.78c-.38.22-.75.37-1.11.44-.07-.27-.13-.56-.15-.89l-1.33-20.49c-.17-2.54,1.49-5.65,3.71-6.93l22.38-12.92c.37-.21.74-.36,1.08-.44.07.27.12.56.14.89Zm-58.81,71.34l22.08-12.75c.38-.22.76-.37,1.12-.45.07.28.13.57.15.91l1.37,20.44c.17,2.55-1.49,5.65-3.7,6.93l-21.86,12.63c-.39.22-.77.38-1.14.45-.08-.28-.13-.57-.16-.9l-1.53-20.33c-.19-2.54,1.45-5.64,3.66-6.92Zm20.86-49.4l1.37,20.45c.18,2.54-1.48,5.64-3.69,6.93l-22.14,12.77c-.39.22-.78.38-1.14.45-.08-.27-.13-.57-.16-.9l-1.53-20.32c-.19-2.54,1.45-5.64,3.66-6.93l22.36-12.9c.39-.22.76-.38,1.12-.46.07.28.13.57.15.91Zm-20.24,113.58l-1.52-20.32c-.19-2.55,1.45-5.65,3.66-6.93l21.8-12.59c.38-.22.75-.37,1.11-.44.07.27.13.56.15.89l1.37,20.45c.18,2.55-1.48,5.65-3.69,6.93l-21.58,12.46c-.4.22-.78.38-1.15.45-.08-.28-.13-.57-.16-.9Zm37.02-21.35l-1.33-20.49c-.17-2.54,1.5-5.65,3.71-6.93l21.78-12.57c.37-.21.73-.36,1.07-.43.07.27.12.56.14.88l1.17,20.63c.14,2.54-1.54,5.65-3.75,6.93l-21.53,12.43c-.38.22-.75.37-1.11.45-.07-.28-.13-.57-.15-.9Zm36.98-21.32l-1.13-20.66c-.13-2.54,1.54-5.65,3.76-6.93l21.75-12.56c.35-.2.7-.35,1.04-.43.07.27.11.56.13.89l.94,20.8c.11,2.55-1.59,5.66-3.8,6.94l-21.49,12.4c-.37.21-.73.36-1.07.43-.07-.27-.11-.56-.13-.88Z"/>
            <path class="cls-15" d="m221.19,168.45l-.07-1.78-4.97-116.47c-.52-.06-1.05-.1-1.57-.1-1.85,0-3.59.41-4.88,1.16l-114.02,65.84c-1.16.66-1.43,1.24-1.44,1.34l8.71,113.5.46,4.34c.13-.21.51-.64,1.33-1.11l110.09-63.56c1.4-.81,3.3-1.26,5.36-1.26.37,0,.73.02,1.09.05l-.08-1.94Zm-16.45-40.88l-21.82,12.61c-.37.21-.73.36-1.07.44-.06-.27-.11-.57-.13-.9l-1.13-20.65c-.13-2.55,1.54-5.65,3.76-6.93l22.09-12.75c.36-.2.7-.35,1.04-.43.07.27.11.56.13.89l.94,20.8c.11,2.55-1.59,5.65-3.8,6.93Zm1.17-65.29l.93,20.8c.11,2.55-1.59,5.66-3.8,6.94l-22.15,12.79c-.37.21-.73.36-1.07.44-.06-.27-.11-.57-.13-.9l-1.13-20.65c-.13-2.54,1.54-5.65,3.76-6.93l22.43-12.95c.35-.2.7-.35,1.04-.43.07.27.11.56.13.89Zm-59.19,71.58l22.09-12.75c.37-.21.74-.36,1.08-.44.07.27.12.57.14.9l1.16,20.62c.15,2.55-1.53,5.65-3.75,6.93l-21.84,12.61c-.38.22-.76.37-1.11.45-.07-.27-.13-.57-.15-.9l-1.32-20.48c-.17-2.55,1.49-5.65,3.7-6.93Zm21.2-49.62l1.17,20.62c.14,2.55-1.54,5.66-3.75,6.94l-22.14,12.78c-.38.22-.75.37-1.11.44-.07-.27-.13-.56-.15-.89l-1.33-20.49c-.17-2.54,1.49-5.65,3.71-6.93l22.38-12.92c.37-.21.74-.36,1.08-.44.07.27.12.56.14.89Zm-58.81,71.34l22.08-12.75c.38-.22.76-.37,1.12-.45.07.28.13.57.15.91l1.37,20.44c.17,2.55-1.49,5.65-3.7,6.93l-21.86,12.63c-.39.22-.77.38-1.14.45-.08-.28-.13-.57-.16-.9l-1.53-20.33c-.19-2.54,1.45-5.64,3.66-6.92Zm20.86-49.4l1.37,20.45c.18,2.54-1.48,5.64-3.69,6.93l-22.14,12.77c-.39.22-.78.38-1.14.45-.08-.27-.13-.57-.16-.9l-1.53-20.32c-.19-2.54,1.45-5.64,3.66-6.93l22.36-12.9c.39-.22.76-.38,1.12-.46.07.28.13.57.15.91Zm-20.24,113.58l-1.52-20.32c-.19-2.55,1.45-5.65,3.66-6.93l21.8-12.59c.38-.22.75-.37,1.11-.44.07.27.13.56.15.89l1.37,20.45c.18,2.55-1.48,5.65-3.69,6.93l-21.58,12.46c-.4.22-.78.38-1.15.45-.08-.28-.13-.57-.16-.9Zm37.02-21.35l-1.33-20.49c-.17-2.54,1.5-5.65,3.71-6.93l21.78-12.57c.37-.21.73-.36,1.07-.43.07.27.12.56.14.88l1.17,20.63c.14,2.54-1.54,5.65-3.75,6.93l-21.53,12.43c-.38.22-.75.37-1.11.45-.07-.28-.13-.57-.15-.9Zm36.98-21.32l-1.13-20.66c-.13-2.54,1.54-5.65,3.76-6.93l21.75-12.56c.35-.2.7-.35,1.04-.43.07.27.11.56.13.89l.94,20.8c.11,2.55-1.59,5.66-3.8,6.94l-21.49,12.4c-.37.21-.73.36-1.07.43-.07-.27-.11-.56-.13-.88Z"/>
            <path class="cls-16" d="m175.19,160.73c-.12-2.13-1.47-3.19-3.19-2.74.07.27.12.56.14.88l1.17,20.63c.14,2.54-1.54,5.65-3.75,6.93l-21.53,12.43c-.38.22-.75.37-1.11.45.52,1.87,2.23,2.52,4.16,1.41l21.53-12.43c2.21-1.29,3.88-4.38,3.74-6.94l-1.16-20.62Zm35.46-59.04c-.09-2.15-1.43-3.21-3.18-2.74.07.27.11.56.13.89l.94,20.8c.11,2.55-1.59,5.65-3.8,6.93l-21.82,12.61c-.37.21-.73.36-1.07.44.49,1.88,2.19,2.52,4.13,1.41l21.82-12.6c2.21-1.28,3.91-4.37,3.79-6.93l-.93-20.81Zm-37.57,21.72c-.11-2.12-1.45-3.18-3.18-2.75.07.27.12.57.14.9l1.16,20.62c.15,2.55-1.53,5.65-3.75,6.93l-21.84,12.61c-.38.22-.76.37-1.11.45.52,1.88,2.23,2.52,4.16,1.41l21.84-12.61c2.21-1.28,3.88-4.38,3.75-6.93l-1.17-20.63Zm35.88-59.27c-.09-2.14-1.43-3.22-3.17-2.75.07.27.11.56.13.89l.93,20.8c.11,2.55-1.59,5.66-3.8,6.94l-22.15,12.79c-.37.21-.73.36-1.07.44.49,1.88,2.19,2.53,4.13,1.42l22.15-12.79c2.21-1.28,3.91-4.38,3.79-6.94l-.93-20.8Zm-37.99,21.96c-.11-2.13-1.46-3.19-3.18-2.75.07.27.12.56.14.89l1.17,20.62c.14,2.55-1.54,5.66-3.75,6.94l-22.14,12.78c-.38.22-.75.37-1.11.44.51,1.88,2.22,2.53,4.15,1.42l22.14-12.79c2.22-1.28,3.89-4.37,3.75-6.93l-1.17-20.62Zm-37.94,21.93c-.15-2.1-1.49-3.17-3.2-2.76.07.28.13.57.15.91l1.37,20.45c.18,2.54-1.48,5.64-3.69,6.93l-22.14,12.77c-.39.22-.78.38-1.14.45.53,1.88,2.26,2.52,4.19,1.41l22.13-12.78c2.21-1.28,3.87-4.37,3.7-6.93l-1.37-20.45Zm79.31,31.23c-.1-2.14-1.44-3.22-3.18-2.75.07.27.11.56.13.89l.94,20.8c.11,2.55-1.59,5.66-3.8,6.94l-21.49,12.4c-.37.21-.73.36-1.07.43.48,1.89,2.18,2.54,4.13,1.42l21.49-12.4c2.21-1.28,3.91-4.38,3.79-6.94l-.93-20.8Zm-74.35,42.97c-.14-2.11-1.49-3.17-3.2-2.75.07.27.13.56.15.89l1.37,20.45c.18,2.55-1.48,5.65-3.69,6.93l-21.58,12.46c-.4.22-.78.38-1.15.45.54,1.87,2.27,2.52,4.2,1.41l21.57-12.46c2.22-1.28,3.87-4.37,3.7-6.93l-1.37-20.45Zm-2.49-37.1c-.14-2.1-1.48-3.17-3.19-2.76.07.28.13.57.15.91l1.37,20.44c.17,2.55-1.49,5.65-3.7,6.93l-21.86,12.63c-.39.22-.77.38-1.14.45.53,1.87,2.26,2.51,4.19,1.4l21.86-12.62c2.21-1.28,3.87-4.37,3.69-6.93l-1.37-20.45Z"/>
          </g>
          <g>
            <path class="cls-16" d="m364.69,162.64L220.93,52c-1.2-.92-2.92-1.56-4.78-1.79l5.04,118.19.08,2c1.91.18,3.69.64,5.24,1.66l128.11,88.04,11.48-95.29v-.06c0-.64-.51-1.42-1.41-2.1Zm-55.82,20.39c0,.12-.02.24-.04.35-.15-.08-.3-.18-.44-.29l-30.56-21.99c-2.07-1.49-3.7-4.77-3.63-7.33l.48-18.27c0-.06,0-.13,0-.19.08.06.16.11.24.17l31.72,23.48c2.05,1.53,3.57,4.82,3.39,7.37l-1.17,16.68Zm44.28,32.21c-.2-.1-.41-.23-.62-.38l-30.31-21.81c-2.07-1.5-3.6-4.77-3.39-7.32l1.26-16.45c0-.1.02-.2.04-.3.15.08.3.19.44.3l31.19,23.09c2.05,1.53,3.49,4.81,3.19,7.35l-1.73,15.09c-.02.15-.04.29-.06.42Zm-30.17-77.94l32.29,24.7c2.03,1.55,3.43,4.87,3.14,7.41l-1.72,15.07c0,.12-.03.24-.06.35-.19-.1-.39-.22-.58-.37l-31.42-23.42c-2.04-1.53-3.54-4.83-3.35-7.37l1.26-16.41c0-.08,0-.16.02-.23.14.07.28.18.42.28Zm-47.2-36.1l33.18,25.38c2.03,1.55,3.53,4.87,3.35,7.43l-1.17,16.65c0,.09-.02.19-.03.28-.14-.08-.27-.18-.41-.28l-32.02-23.86c-2.04-1.53-3.65-4.84-3.58-7.39l.47-18.24s0-.07,0-.1c.06.05.13.09.19.14Zm-11.58,49.84c0,.08,0,.16,0,.23-.08-.05-.16-.1-.23-.16l-30.91-22.24c-2.07-1.5-3.82-4.77-3.9-7.33l-.68-20.44,32.45,24.02c2.05,1.52,3.68,4.82,3.63,7.37l-.34,18.54Zm-2.62-60.69c2.03,1.54,3.63,4.87,3.59,7.43l-.33,18.54v.14c-.06-.04-.14-.09-.2-.14l-32.86-24.49c-2.05-1.53-3.78-4.84-3.87-7.39l-.68-20.37,34.35,26.29Zm1.69,95.59l-28.94-20.05c-2.1-1.45-3.88-4.7-3.96-7.25l-.68-20.43v-.08s0,0,.02,0l30.51,21.8c2.08,1.49,3.73,4.76,3.68,7.32l-.34,18.55c0,.11,0,.21-.02.31-.09-.06-.18-.11-.28-.18Zm42.81,29.65l-29.1-20.15c-2.1-1.45-3.75-4.71-3.68-7.26l.48-18.28c0-.09,0-.18.02-.27.09.06.18.12.27.18l30.27,21.62c2.07,1.49,3.62,4.75,3.44,7.31l-1.17,16.71c0,.15-.03.29-.05.42-.16-.07-.32-.18-.48-.29Zm42.92,29.74l-29.19-20.23c-2.1-1.45-3.64-4.7-3.45-7.24l1.25-16.49c0-.13.03-.26.05-.38.16.09.31.19.47.31l30.11,21.51c2.08,1.48,3.53,4.74,3.24,7.28l-1.73,15.13c-.02.18-.05.33-.08.49-.21-.1-.43-.22-.66-.38Z"/>
            <path class="cls-7" d="m364.69,162.64L220.93,52c-1.2-.92-2.92-1.56-4.78-1.79l5.04,118.19.08,2c1.91.18,3.69.64,5.24,1.66l128.11,88.04,11.48-95.29v-.06c0-.64-.51-1.42-1.41-2.1Zm-55.82,20.39c0,.12-.02.24-.04.35-.15-.08-.3-.18-.44-.29l-30.56-21.99c-2.07-1.49-3.7-4.77-3.63-7.33l.48-18.27c0-.06,0-.13,0-.19.08.06.16.11.24.17l31.72,23.48c2.05,1.53,3.57,4.82,3.39,7.37l-1.17,16.68Zm44.28,32.21c-.2-.1-.41-.23-.62-.38l-30.31-21.81c-2.07-1.5-3.6-4.77-3.39-7.32l1.26-16.45c0-.1.02-.2.04-.3.15.08.3.19.44.3l31.19,23.09c2.05,1.53,3.49,4.81,3.19,7.35l-1.73,15.09c-.02.15-.04.29-.06.42Zm-30.17-77.94l32.29,24.7c2.03,1.55,3.43,4.87,3.14,7.41l-1.72,15.07c0,.12-.03.24-.06.35-.19-.1-.39-.22-.58-.37l-31.42-23.42c-2.04-1.53-3.54-4.83-3.35-7.37l1.26-16.41c0-.08,0-.16.02-.23.14.07.28.18.42.28Zm-47.2-36.1l33.18,25.38c2.03,1.55,3.53,4.87,3.35,7.43l-1.17,16.65c0,.09-.02.19-.03.28-.14-.08-.27-.18-.41-.28l-32.02-23.86c-2.04-1.53-3.65-4.84-3.58-7.39l.47-18.24s0-.07,0-.1c.06.05.13.09.19.14Zm-11.58,49.84c0,.08,0,.16,0,.23-.08-.05-.16-.1-.23-.16l-30.91-22.24c-2.07-1.5-3.82-4.77-3.9-7.33l-.68-20.44,32.45,24.02c2.05,1.52,3.68,4.82,3.63,7.37l-.34,18.54Zm-2.62-60.69c2.03,1.54,3.63,4.87,3.59,7.43l-.33,18.54v.14c-.06-.04-.14-.09-.2-.14l-32.86-24.49c-2.05-1.53-3.78-4.84-3.87-7.39l-.68-20.37,34.35,26.29Zm1.69,95.59l-28.94-20.05c-2.1-1.45-3.88-4.7-3.96-7.25l-.68-20.43v-.08s0,0,.02,0l30.51,21.8c2.08,1.49,3.73,4.76,3.68,7.32l-.34,18.55c0,.11,0,.21-.02.31-.09-.06-.18-.11-.28-.18Zm42.81,29.65l-29.1-20.15c-2.1-1.45-3.75-4.71-3.68-7.26l.48-18.28c0-.09,0-.18.02-.27.09.06.18.12.27.18l30.27,21.62c2.07,1.49,3.62,4.75,3.44,7.31l-1.17,16.71c0,.15-.03.29-.05.42-.16-.07-.32-.18-.48-.29Zm42.92,29.74l-29.19-20.23c-2.1-1.45-3.64-4.7-3.45-7.24l1.25-16.49c0-.13.03-.26.05-.38.16.09.31.19.47.31l30.11,21.51c2.08,1.48,3.53,4.74,3.24,7.28l-1.73,15.13c-.02.18-.05.33-.08.49-.21-.1-.43-.22-.66-.38Z"/>
            <path class="cls-16" d="m231.77,91.82c-2.05-1.53-3.78-4.84-3.87-7.39l-.68-20.37-.07-.06c-2.03-1.54-3.61-.74-3.52,1.81l.68,20.47c.08,2.55,1.81,5.85,3.86,7.38l32.87,24.5c2.01,1.5,3.68.72,3.79-1.72-.06-.04-.14-.09-.2-.14l-32.86-24.49Zm1.28,37.05c-2.07-1.5-3.82-4.77-3.9-7.33l-.68-20.44-.03-.02c-2.05-1.53-3.64-.68-3.56,1.87l.68,20.44c.09,2.55,1.84,5.84,3.91,7.33l30.91,22.24c2.01,1.45,3.68.68,3.82-1.69-.08-.05-.16-.1-.23-.16l-30.91-22.24Zm43.93,66.57c-2.1-1.45-3.75-4.71-3.68-7.26l.48-18.28c0-.09,0-.18.02-.27-1.95-1.22-3.54-.32-3.61,2.13l-.48,18.28c-.06,2.55,1.58,5.8,3.68,7.25l29.09,20.15c1.98,1.38,3.74.67,4.08-1.56-.16-.07-.32-.18-.48-.29l-29.1-20.15Zm-42.65-29.55c-2.1-1.45-3.88-4.7-3.96-7.25l-.68-20.43v-.08c-2.07-1.47-3.68-.6-3.6,1.94l.68,20.42c.08,2.55,1.85,5.8,3.95,7.25l28.95,20.05c2.01,1.4,3.69.64,3.87-1.67-.09-.06-.18-.11-.28-.18l-28.94-20.05Zm121.72,18.56l-31.42-23.42c-2.04-1.53-3.54-4.83-3.35-7.37l1.26-16.41c0-.08,0-.16.02-.23-1.85-1.15-3.42-.29-3.61,2.08l-1.27,16.41c-.19,2.55,1.31,5.85,3.36,7.38l31.41,23.41c1.95,1.45,3.76.79,4.18-1.48-.19-.1-.39-.22-.58-.37Zm-78.22-23.34c-2.07-1.49-3.7-4.77-3.63-7.33l.48-18.27c0-.06,0-.13,0-.19-1.94-1.29-3.53-.42-3.6,2.03l-.48,18.28c-.06,2.55,1.56,5.83,3.63,7.32l30.56,21.99c1.97,1.42,3.72.71,4.03-1.56-.15-.08-.3-.18-.44-.29l-30.56-21.99Zm44.39,31.94c-2.07-1.5-3.6-4.77-3.39-7.32l1.26-16.45c0-.1.02-.2.04-.3-1.87-1.1-3.45-.21-3.63,2.16l-1.27,16.44c-.19,2.55,1.33,5.83,3.4,7.32l30.31,21.82c1.95,1.41,3.76.73,4.21-1.48-.2-.1-.41-.23-.62-.38l-30.31-21.81Zm-2.41,32.05c-2.1-1.45-3.64-4.7-3.45-7.24l1.25-16.49c0-.13.03-.26.05-.38-1.88-1.04-3.46-.12-3.64,2.23l-1.26,16.49c-.19,2.55,1.35,5.79,3.45,7.25l29.2,20.22c1.96,1.36,3.77.69,4.25-1.47-.21-.1-.43-.22-.66-.38l-29.19-20.23Zm-41.12-98.31c-2.04-1.53-3.65-4.84-3.58-7.39l.47-18.24s0-.07,0-.1c-1.94-1.35-3.53-.52-3.6,1.95l-.48,18.24c-.06,2.55,1.54,5.86,3.59,7.39l32.02,23.86c1.97,1.47,3.71.76,4-1.57-.14-.08-.27-.18-.41-.28l-32.02-23.86Z"/>
            <path class="cls-14" d="m231.77,91.82c-2.05-1.53-3.78-4.84-3.87-7.39l-.68-20.37-.07-.06c-2.03-1.54-3.61-.74-3.52,1.81l.68,20.47c.08,2.55,1.81,5.85,3.86,7.38l32.87,24.5c2.01,1.5,3.68.72,3.79-1.72-.06-.04-.14-.09-.2-.14l-32.86-24.49Zm1.28,37.05c-2.07-1.5-3.82-4.77-3.9-7.33l-.68-20.44-.03-.02c-2.05-1.53-3.64-.68-3.56,1.87l.68,20.44c.09,2.55,1.84,5.84,3.91,7.33l30.91,22.24c2.01,1.45,3.68.68,3.82-1.69-.08-.05-.16-.1-.23-.16l-30.91-22.24Zm43.93,66.57c-2.1-1.45-3.75-4.71-3.68-7.26l.48-18.28c0-.09,0-.18.02-.27-1.95-1.22-3.54-.32-3.61,2.13l-.48,18.28c-.06,2.55,1.58,5.8,3.68,7.25l29.09,20.15c1.98,1.38,3.74.67,4.08-1.56-.16-.07-.32-.18-.48-.29l-29.1-20.15Zm-42.65-29.55c-2.1-1.45-3.88-4.7-3.96-7.25l-.68-20.43v-.08c-2.07-1.47-3.68-.6-3.6,1.94l.68,20.42c.08,2.55,1.85,5.8,3.95,7.25l28.95,20.05c2.01,1.4,3.69.64,3.87-1.67-.09-.06-.18-.11-.28-.18l-28.94-20.05Zm121.72,18.56l-31.42-23.42c-2.04-1.53-3.54-4.83-3.35-7.37l1.26-16.41c0-.08,0-.16.02-.23-1.85-1.15-3.42-.29-3.61,2.08l-1.27,16.41c-.19,2.55,1.31,5.85,3.36,7.38l31.41,23.41c1.95,1.45,3.76.79,4.18-1.48-.19-.1-.39-.22-.58-.37Zm-78.22-23.34c-2.07-1.49-3.7-4.77-3.63-7.33l.48-18.27c0-.06,0-.13,0-.19-1.94-1.29-3.53-.42-3.6,2.03l-.48,18.28c-.06,2.55,1.56,5.83,3.63,7.32l30.56,21.99c1.97,1.42,3.72.71,4.03-1.56-.15-.08-.3-.18-.44-.29l-30.56-21.99Zm44.39,31.94c-2.07-1.5-3.6-4.77-3.39-7.32l1.26-16.45c0-.1.02-.2.04-.3-1.87-1.1-3.45-.21-3.63,2.16l-1.27,16.44c-.19,2.55,1.33,5.83,3.4,7.32l30.31,21.82c1.95,1.41,3.76.73,4.21-1.48-.2-.1-.41-.23-.62-.38l-30.31-21.81Zm-2.41,32.05c-2.1-1.45-3.64-4.7-3.45-7.24l1.25-16.49c0-.13.03-.26.05-.38-1.88-1.04-3.46-.12-3.64,2.23l-1.26,16.49c-.19,2.55,1.35,5.79,3.45,7.25l29.2,20.22c1.96,1.36,3.77.69,4.25-1.47-.21-.1-.43-.22-.66-.38l-29.19-20.23Zm-41.12-98.31c-2.04-1.53-3.65-4.84-3.58-7.39l.47-18.24s0-.07,0-.1c-1.94-1.35-3.53-.52-3.6,1.95l-.48,18.24c-.06,2.55,1.54,5.86,3.59,7.39l32.02,23.86c1.97,1.47,3.71.76,4-1.57-.14-.08-.27-.18-.41-.28l-32.02-23.86Z"/>
          </g>
          <path class="cls-16" d="m366.95,159.71L223.19,49.07c-4.05-3.12-10.91-3.57-15.34-1.02l-114.02,65.84c-2.2,1.27-3.29,2.91-3.3,4.55h3.7c0-.1.29-.68,1.44-1.34l114.02-65.84c1.29-.75,3.03-1.16,4.88-1.16,2.43,0,4.81.71,6.35,1.9l143.76,110.64c.92.7,1.44,1.52,1.41,2.16h3.7c.03-1.78-.91-3.61-2.85-5.1Z"/>
          <path class="cls-2" d="m366.95,159.71L223.19,49.07c-4.05-3.12-10.91-3.57-15.34-1.02l-114.02,65.84c-2.2,1.27-3.29,2.91-3.3,4.55h3.7c0-.1.29-.68,1.44-1.34l114.02-65.84c1.29-.75,3.03-1.16,4.88-1.16,2.43,0,4.81.71,6.35,1.9l143.76,110.64c.92.7,1.44,1.52,1.41,2.16h3.7c.03-1.78-.91-3.61-2.85-5.1Z"/>
        </g>
      </g>
      <g>
        <g>
          <path class="cls-16" d="m266.23,218.57L93.9,123c-2.02-1.12-3.12-2.55-3.33-4.04l9.1,117.56s0,.08,0,.12c.16,1.48,1.33,2.91,3.52,3.97l152.42,73.6c2.4,1.16,5.52,1.64,8.6,1.47l10.39-95.29c-3.02.07-6.07-.53-8.38-1.81Zm-47.37-21.29l44.99,24.81c2.24,1.24,3.84,4.3,3.59,6.84l-1.83,18.21c-.04.36-.11.69-.21.99-.27-.07-.56-.19-.83-.34l-43.29-23.05c-2.26-1.2-4-4.24-3.9-6.79l.77-20.06c0-.31.06-.61.12-.88.19.07.4.17.6.28Zm-12.61,54.56l-41.28-21c-2.28-1.16-4.17-4.16-4.22-6.71l-.47-22.12c0-.31.02-.61.06-.88.14.06.28.13.43.2l42.95,22.73c2.26,1.19,4.02,4.24,3.94,6.79l-.65,20.26c0,.36-.06.69-.15,1-.2-.06-.41-.16-.62-.26Zm57.96,9.06l-1.84,18.19c-.04.39-.12.74-.24,1.05-.28-.07-.56-.19-.85-.33l-41.28-20.99c-2.28-1.16-4.04-4.17-3.94-6.72l.77-20.05c0-.34.06-.66.14-.94.2.06.41.16.62.27l43,22.75c2.27,1.19,3.88,4.22,3.63,6.76Zm-104.28-96.13l44.93,24.79c2.24,1.23,3.99,4.3,3.9,6.85l-.65,20.26c0,.33-.06.65-.12.93-.2-.06-.41-.16-.61-.27l-43.24-23.02c-2.26-1.19-4.13-4.24-4.18-6.79l-.48-22.14c0-.29,0-.55.05-.8.13.06.26.12.4.19Zm-8.7,59.08l-41.28-21c-2.28-1.16-4.27-4.16-4.46-6.71l-1.76-24.21c-.02-.28-.02-.54,0-.78.07.03.16.06.24.11l42.96,22.73c2.26,1.19,4.14,4.23,4.21,6.78l.58,22.32c0,.34-.02.66-.07.94-.14-.06-.28-.12-.43-.19Zm-50.12-91.52l44.85,24.73c2.24,1.23,4.11,4.3,4.17,6.85l.6,22.35c0,.31,0,.59-.06.85-.13-.05-.26-.11-.4-.18l-43.2-23c-2.26-1.2-4.24-4.24-4.42-6.79l-1.76-24.21c-.02-.25-.02-.48,0-.7.07.03.15.07.22.11Zm50.93,123.16l-39.62-19.28c-2.29-1.12-4.31-4.09-4.5-6.63l-1.35-18.63c-.02-.31-.02-.6.02-.87.08.03.18.07.27.12l41,20.71c2.28,1.15,4.19,4.15,4.25,6.71l.46,17.06c0,.36-.02.69-.09,1-.15-.05-.3-.11-.44-.18Zm53.24,25.91l-39.6-19.27c-2.29-1.12-4.2-4.1-4.25-6.65l-.36-16.89c0-.34.02-.67.07-.95.15.06.31.13.45.2l40.99,20.7c2.28,1.15,4.07,4.15,3.99,6.71l-.49,15.34c0,.39-.06.75-.17,1.06-.21-.06-.43-.15-.64-.25Zm53.19,25.89l-39.56-19.26c-2.29-1.11-4.08-4.09-3.98-6.64l.58-15.16c.02-.37.06-.71.16-1.02.21.06.43.15.65.26l40.99,20.7c2.28,1.16,3.92,4.14,3.66,6.69l-1.39,13.63c-.04.41-.13.78-.26,1.11-.29-.06-.57-.18-.86-.31Z"/>
          <path class="cls-7" d="m266.23,218.57L93.9,123c-2.02-1.12-3.12-2.55-3.33-4.04l9.1,117.56s0,.08,0,.12c.16,1.48,1.33,2.91,3.52,3.97l152.42,73.6c2.4,1.16,5.52,1.64,8.6,1.47l10.39-95.29c-3.02.07-6.07-.53-8.38-1.81Zm-47.37-21.29l44.99,24.81c2.24,1.24,3.84,4.3,3.59,6.84l-1.83,18.21c-.04.36-.11.69-.21.99-.27-.07-.56-.19-.83-.34l-43.29-23.05c-2.26-1.2-4-4.24-3.9-6.79l.77-20.06c0-.31.06-.61.12-.88.19.07.4.17.6.28Zm-12.61,54.56l-41.28-21c-2.28-1.16-4.17-4.16-4.22-6.71l-.47-22.12c0-.31.02-.61.06-.88.14.06.28.13.43.2l42.95,22.73c2.26,1.19,4.02,4.24,3.94,6.79l-.65,20.26c0,.36-.06.69-.15,1-.2-.06-.41-.16-.62-.26Zm57.96,9.06l-1.84,18.19c-.04.39-.12.74-.24,1.05-.28-.07-.56-.19-.85-.33l-41.28-20.99c-2.28-1.16-4.04-4.17-3.94-6.72l.77-20.05c0-.34.06-.66.14-.94.2.06.41.16.62.27l43,22.75c2.27,1.19,3.88,4.22,3.63,6.76Zm-104.28-96.13l44.93,24.79c2.24,1.23,3.99,4.3,3.9,6.85l-.65,20.26c0,.33-.06.65-.12.93-.2-.06-.41-.16-.61-.27l-43.24-23.02c-2.26-1.19-4.13-4.24-4.18-6.79l-.48-22.14c0-.29,0-.55.05-.8.13.06.26.12.4.19Zm-8.7,59.08l-41.28-21c-2.28-1.16-4.27-4.16-4.46-6.71l-1.76-24.21c-.02-.28-.02-.54,0-.78.07.03.16.06.24.11l42.96,22.73c2.26,1.19,4.14,4.23,4.21,6.78l.58,22.32c0,.34-.02.66-.07.94-.14-.06-.28-.12-.43-.19Zm-50.12-91.52l44.85,24.73c2.24,1.23,4.11,4.3,4.17,6.85l.6,22.35c0,.31,0,.59-.06.85-.13-.05-.26-.11-.4-.18l-43.2-23c-2.26-1.2-4.24-4.24-4.42-6.79l-1.76-24.21c-.02-.25-.02-.48,0-.7.07.03.15.07.22.11Zm50.93,123.16l-39.62-19.28c-2.29-1.12-4.31-4.09-4.5-6.63l-1.35-18.63c-.02-.31-.02-.6.02-.87.08.03.18.07.27.12l41,20.71c2.28,1.15,4.19,4.15,4.25,6.71l.46,17.06c0,.36-.02.69-.09,1-.15-.05-.3-.11-.44-.18Zm53.24,25.91l-39.6-19.27c-2.29-1.12-4.2-4.1-4.25-6.65l-.36-16.89c0-.34.02-.67.07-.95.15.06.31.13.45.2l40.99,20.7c2.28,1.15,4.07,4.15,3.99,6.71l-.49,15.34c0,.39-.06.75-.17,1.06-.21-.06-.43-.15-.64-.25Zm53.19,25.89l-39.56-19.26c-2.29-1.11-4.08-4.09-3.98-6.64l.58-15.16c.02-.37.06-.71.16-1.02.21.06.43.15.65.26l40.99,20.7c2.28,1.16,3.92,4.14,3.66,6.69l-1.39,13.63c-.04.41-.13.78-.26,1.11-.29-.06-.57-.18-.86-.31Z"/>
          <path class="cls-16" d="m258.47,307.3l-39.56-19.26c-2.29-1.11-4.08-4.09-3.98-6.64l.58-15.16c.02-.37.06-.71.16-1.02-1.99-.66-3.57.49-3.66,2.79l-.58,15.17c-.09,2.55,1.68,5.52,3.99,6.64l39.55,19.26c1.93.93,3.71.27,4.37-1.47-.29-.06-.57-.18-.86-.31Zm6.1-59.52l-43.29-23.05c-2.26-1.2-4-4.24-3.9-6.79l.77-20.06c0-.31.06-.61.12-.88-1.96-.75-3.53.34-3.63,2.66l-.77,20.06c-.1,2.54,1.65,5.59,3.9,6.79l43.29,23.05c1.93,1.03,3.71.37,4.34-1.44-.27-.07-.56-.19-.83-.34Zm-3.28,32.04l-41.28-20.99c-2.28-1.16-4.04-4.17-3.94-6.72l.77-20.05c0-.34.06-.66.14-.94-1.98-.71-3.55.42-3.64,2.73l-.77,20.04c-.1,2.55,1.66,5.56,3.94,6.72l41.29,20.99c1.93.98,3.7.32,4.35-1.45-.28-.07-.56-.19-.85-.33Zm-55.02-27.98l-41.28-21c-2.28-1.16-4.17-4.16-4.22-6.71l-.47-22.12c0-.31.02-.61.06-.88-2.05-.84-3.62.28-3.57,2.66l.47,22.12c.06,2.55,1.94,5.56,4.22,6.71l41.28,21c1.95.99,3.63.31,4.13-1.53-.2-.06-.41-.16-.62-.26Zm1.14-34.5l-43.24-23.02c-2.26-1.19-4.13-4.24-4.18-6.79l-.48-22.14c0-.29,0-.55.05-.8-2.04-.9-3.61.19-3.55,2.59l.48,22.13c.06,2.55,1.93,5.6,4.18,6.8l43.25,23.02c1.95,1.05,3.64.35,4.11-1.52-.2-.06-.41-.16-.61-.27Zm-56.16,6.52l-41.28-21c-2.28-1.16-4.27-4.16-4.46-6.71l-1.76-24.21c-.02-.28-.02-.54,0-.78-2.14-1-3.68.11-3.51,2.56l1.76,24.21c.18,2.54,2.18,5.55,4.46,6.71l41.28,20.99c1.97,1.01,3.58.29,3.93-1.58-.14-.06-.28-.12-.43-.19Zm54.04,57.55l-39.6-19.27c-2.29-1.12-4.2-4.1-4.25-6.65l-.36-16.89c0-.34.02-.67.07-.95-2.06-.8-3.63.35-3.58,2.74l.36,16.89c.06,2.55,1.96,5.53,4.25,6.65l39.6,19.27c1.94.95,3.63.26,4.14-1.54-.21-.06-.43-.15-.64-.25Zm-55-94.47l-43.2-23c-2.26-1.2-4.24-4.24-4.42-6.79l-1.76-24.21c-.02-.25-.02-.48,0-.7-2.13-1.05-3.67.02-3.5,2.49l1.76,24.21c.19,2.55,2.16,5.59,4.42,6.79l43.2,23c1.99,1.05,3.6.33,3.9-1.6-.13-.05-.26-.11-.4-.18Zm1.76,68.56l-39.62-19.28c-2.29-1.12-4.31-4.09-4.5-6.63l-1.35-18.63c-.02-.31-.02-.6.02-.87-2.14-.93-3.7.2-3.52,2.65l1.36,18.64c.19,2.54,2.19,5.51,4.49,6.63l39.62,19.28c1.98.96,3.59.24,3.95-1.6-.15-.05-.3-.11-.44-.18Z"/>
          <path class="cls-14" d="m258.47,307.3l-39.56-19.26c-2.29-1.11-4.08-4.09-3.98-6.64l.58-15.16c.02-.37.06-.71.16-1.02-1.99-.66-3.57.49-3.66,2.79l-.58,15.17c-.09,2.55,1.68,5.52,3.99,6.64l39.55,19.26c1.93.93,3.71.27,4.37-1.47-.29-.06-.57-.18-.86-.31Zm6.1-59.52l-43.29-23.05c-2.26-1.2-4-4.24-3.9-6.79l.77-20.06c0-.31.06-.61.12-.88-1.96-.75-3.53.34-3.63,2.66l-.77,20.06c-.1,2.54,1.65,5.59,3.9,6.79l43.29,23.05c1.93,1.03,3.71.37,4.34-1.44-.27-.07-.56-.19-.83-.34Zm-3.28,32.04l-41.28-20.99c-2.28-1.16-4.04-4.17-3.94-6.72l.77-20.05c0-.34.06-.66.14-.94-1.98-.71-3.55.42-3.64,2.73l-.77,20.04c-.1,2.55,1.66,5.56,3.94,6.72l41.29,20.99c1.93.98,3.7.32,4.35-1.45-.28-.07-.56-.19-.85-.33Zm-55.02-27.98l-41.28-21c-2.28-1.16-4.17-4.16-4.22-6.71l-.47-22.12c0-.31.02-.61.06-.88-2.05-.84-3.62.28-3.57,2.66l.47,22.12c.06,2.55,1.94,5.56,4.22,6.71l41.28,21c1.95.99,3.63.31,4.13-1.53-.2-.06-.41-.16-.62-.26Zm1.14-34.5l-43.24-23.02c-2.26-1.19-4.13-4.24-4.18-6.79l-.48-22.14c0-.29,0-.55.05-.8-2.04-.9-3.61.19-3.55,2.59l.48,22.13c.06,2.55,1.93,5.6,4.18,6.8l43.25,23.02c1.95,1.05,3.64.35,4.11-1.52-.2-.06-.41-.16-.61-.27Zm-56.16,6.52l-41.28-21c-2.28-1.16-4.27-4.16-4.46-6.71l-1.76-24.21c-.02-.28-.02-.54,0-.78-2.14-1-3.68.11-3.51,2.56l1.76,24.21c.18,2.54,2.18,5.55,4.46,6.71l41.28,20.99c1.97,1.01,3.58.29,3.93-1.58-.14-.06-.28-.12-.43-.19Zm54.04,57.55l-39.6-19.27c-2.29-1.12-4.2-4.1-4.25-6.65l-.36-16.89c0-.34.02-.67.07-.95-2.06-.8-3.63.35-3.58,2.74l.36,16.89c.06,2.55,1.96,5.53,4.25,6.65l39.6,19.27c1.94.95,3.63.26,4.14-1.54-.21-.06-.43-.15-.64-.25Zm-55-94.47l-43.2-23c-2.26-1.2-4.24-4.24-4.42-6.79l-1.76-24.21c-.02-.25-.02-.48,0-.7-2.13-1.05-3.67.02-3.5,2.49l1.76,24.21c.19,2.55,2.16,5.59,4.42,6.79l43.2,23c1.99,1.05,3.6.33,3.9-1.6-.13-.05-.26-.11-.4-.18Zm1.76,68.56l-39.62-19.28c-2.29-1.12-4.31-4.09-4.5-6.63l-1.35-18.63c-.02-.31-.02-.6.02-.87-2.14-.93-3.7.2-3.52,2.65l1.36,18.64c.19,2.54,2.19,5.51,4.49,6.63l39.62,19.28c1.98.96,3.59.24,3.95-1.6-.15-.05-.3-.11-.44-.18Z"/>
        </g>
        <g>
          <path class="cls-16" d="m366.28,169.97l-83.95,48.47c-2.14,1.23-4.91,1.89-7.72,1.95l-10.39,95.29c2.83-.15,5.62-.84,7.74-2.07l82.77-47.79c2.04-1.18,3.17-2.76,3.39-4.39l.03-.24,11.54-95.47c-.32,1.62-1.47,3.14-3.42,4.26Zm-10.36,40.96l-2.19,18.2c-.31,2.53-2.34,5.62-4.55,6.9l-30.12,17.39c-.32.19-.63.31-.92.41-.03-.29-.03-.6,0-.93l1.92-17.87c.27-2.54,2.28-5.64,4.5-6.92l30.5-17.68c.31-.18.59-.31.87-.4.02.28,0,.57-.03.91Zm-44.19,25.56l-1.97,18c-.28,2.54-2.29,5.63-4.5,6.91l-30.56,17.64c-.31.18-.61.31-.9.41-.03-.29-.03-.59,0-.92l1.97-18.01c.29-2.54,2.3-5.63,4.51-6.91l30.54-17.64c.31-.19.62-.31.91-.4.03.29.03.59,0,.92Zm48.03-57.49l-2.18,18.19c-.31,2.53-2.35,5.62-4.56,6.91l-30.57,17.65c-.31.18-.6.31-.88.4-.02-.28,0-.58.03-.92l2.19-18.19c.31-2.54,2.34-5.63,4.55-6.91l30.58-17.65c.31-.18.59-.31.87-.4.02.28,0,.58-.03.92Zm-44.24,25.53l-2.23,18.24c-.31,2.53-2.36,5.62-4.57,6.9l-30.54,17.64c-.31.19-.62.31-.91.4-.03-.29-.03-.59,0-.92l1.98-18.01c.28-2.53,2.3-5.63,4.51-6.91l30.91-17.84c.3-.18.59-.31.86-.39.02.28,0,.57-.03.9Zm-44.7,101.2l1.48-13.48c.28-2.53,2.29-5.63,4.5-6.91l30.62-17.68c.32-.19.64-.33.93-.42.04.29.04.59,0,.93l-1.34,13.35c-.26,2.53-2.26,5.63-4.47,6.91l-30.84,17.8c-.31.19-.62.31-.91.41-.03-.29-.03-.59,0-.92Zm44.22-25.56l1.44-13.42c.27-2.54,2.28-5.63,4.5-6.91l30.25-17.47c.31-.18.6-.31.88-.4.02.28,0,.58-.03.92l-1.65,13.63c-.31,2.53-2.34,5.62-4.55,6.9l-29.94,17.27c-.32.18-.63.32-.92.42-.03-.29-.03-.59,0-.93Z"/>
          <path class="cls-15" d="m366.28,169.97l-83.95,48.47c-2.14,1.23-4.91,1.89-7.72,1.95l-10.39,95.29c2.83-.15,5.62-.84,7.74-2.07l82.77-47.79c2.04-1.18,3.17-2.76,3.39-4.39l.03-.24,11.54-95.47c-.32,1.62-1.47,3.14-3.42,4.26Zm-10.36,40.96l-2.19,18.2c-.31,2.53-2.34,5.62-4.55,6.9l-30.12,17.39c-.32.19-.63.31-.92.41-.03-.29-.03-.6,0-.93l1.92-17.87c.27-2.54,2.28-5.64,4.5-6.92l30.5-17.68c.31-.18.59-.31.87-.4.02.28,0,.57-.03.91Zm-44.19,25.56l-1.97,18c-.28,2.54-2.29,5.63-4.5,6.91l-30.56,17.64c-.31.18-.61.31-.9.41-.03-.29-.03-.59,0-.92l1.97-18.01c.29-2.54,2.3-5.63,4.51-6.91l30.54-17.64c.31-.19.62-.31.91-.4.03.29.03.59,0,.92Zm48.03-57.49l-2.18,18.19c-.31,2.53-2.35,5.62-4.56,6.91l-30.57,17.65c-.31.18-.6.31-.88.4-.02-.28,0-.58.03-.92l2.19-18.19c.31-2.54,2.34-5.63,4.55-6.91l30.58-17.65c.31-.18.59-.31.87-.4.02.28,0,.58-.03.92Zm-44.24,25.53l-2.23,18.24c-.31,2.53-2.36,5.62-4.57,6.9l-30.54,17.64c-.31.19-.62.31-.91.4-.03-.29-.03-.59,0-.92l1.98-18.01c.28-2.53,2.3-5.63,4.51-6.91l30.91-17.84c.3-.18.59-.31.86-.39.02.28,0,.57-.03.9Zm-44.7,101.2l1.48-13.48c.28-2.53,2.29-5.63,4.5-6.91l30.62-17.68c.32-.19.64-.33.93-.42.04.29.04.59,0,.93l-1.34,13.35c-.26,2.53-2.26,5.63-4.47,6.91l-30.84,17.8c-.31.19-.62.31-.91.41-.03-.29-.03-.59,0-.92Zm44.22-25.56l1.44-13.42c.27-2.54,2.28-5.63,4.5-6.91l30.25-17.47c.31-.18.6-.31.88-.4.02.28,0,.58-.03.92l-1.65,13.63c-.31,2.53-2.34,5.62-4.55,6.9l-29.94,17.27c-.32.18-.63.32-.92.42-.03-.29-.03-.59,0-.93Z"/>
          <path class="cls-16" d="m315.54,203.62c.02.28,0,.57-.03.9l-2.23,18.24c-.31,2.53-2.36,5.62-4.57,6.9l-30.54,17.64c-.31.19-.62.31-.91.4.16,1.85,1.59,2.47,3.51,1.36l30.54-17.63c2.21-1.28,4.25-4.37,4.57-6.9l2.23-18.24c.27-2.19-.85-3.25-2.58-2.66Zm44.24-25.55c.02.28,0,.58-.03.92l-2.18,18.19c-.31,2.53-2.35,5.62-4.56,6.91l-30.57,17.65c-.31.18-.6.31-.88.4.14,1.85,1.55,2.47,3.49,1.36l30.57-17.65c2.21-1.28,4.25-4.37,4.55-6.9l2.19-18.2c.26-2.18-.85-3.25-2.58-2.67Zm-48.05,57.48c.03.29.03.59,0,.92l-1.97,18c-.28,2.54-2.29,5.63-4.5,6.91l-30.56,17.64c-.31.18-.61.31-.9.41.16,1.84,1.59,2.47,3.51,1.36l30.55-17.64c2.21-1.28,4.24-4.37,4.51-6.91l1.97-18.01c.24-2.17-.88-3.24-2.6-2.68Zm44.21-25.54c.02.28,0,.57-.03.91l-2.19,18.2c-.31,2.53-2.34,5.62-4.55,6.9l-30.12,17.39c-.32.19-.63.31-.92.41.16,1.84,1.6,2.47,3.51,1.36l30.12-17.39c2.21-1.28,4.25-4.37,4.56-6.91l2.19-18.19c.26-2.18-.85-3.25-2.58-2.67Zm-47.59,57.22c.04.29.04.59,0,.93l-1.34,13.35c-.26,2.53-2.26,5.63-4.47,6.91l-30.84,17.8c-.31.19-.62.31-.91.41.16,1.84,1.59,2.47,3.51,1.36l30.84-17.8c2.21-1.28,4.21-4.37,4.47-6.92l1.34-13.34c.22-2.16-.9-3.24-2.61-2.7Zm43.75-25.28c.02.28,0,.58-.03.92l-1.65,13.63c-.31,2.53-2.34,5.62-4.55,6.9l-29.94,17.27c-.32.18-.63.32-.92.42.17,1.83,1.6,2.46,3.51,1.35l29.94-17.27c2.21-1.28,4.25-4.37,4.56-6.9l1.64-13.63c.26-2.19-.84-3.25-2.57-2.68Z"/>
        </g>
        <path class="cls-16" d="m366.1,164.81c-.05.65-.67,1.38-1.67,1.96l-83.95,48.47c-1.61.93-3.93,1.46-6.36,1.46s-4.54-.49-6.1-1.35L95.69,119.76c-1.16-.64-1.45-1.21-1.46-1.32h-3.7c0,1.66,1.12,3.31,3.37,4.56l172.33,95.57c4.47,2.48,11.68,2.42,16.1-.14l83.95-48.47c2.31-1.33,3.49-3.22,3.52-5.16h-3.7Z"/>
        <path class="cls-2" d="m366.1,164.81c-.05.65-.67,1.38-1.67,1.96l-83.95,48.47c-1.61.93-3.93,1.46-6.36,1.46s-4.54-.49-6.1-1.35L95.69,119.76c-1.16-.64-1.45-1.21-1.46-1.32h-3.7c0,1.66,1.12,3.31,3.37,4.56l172.33,95.57c4.47,2.48,11.68,2.42,16.1-.14l83.95-48.47c2.31-1.33,3.49-3.22,3.52-5.16h-3.7Z"/>
      </g>
    </g>
  </g>
  <g id="Sparkles">
    <path id="Sparkles-2" data-name="Sparkles" class="cls-9" d="m67.34,169.09l-8.02-.89c-.77-.08-1.39-.71-1.46-1.49l-.92-10.23c-.02-.28-.26-.49-.54-.49s-.52.21-.54.49l-.92,10.24c-.07.77-.68,1.4-1.46,1.48l-8.02.89c-.27.03-.48.26-.48.54s.21.51.48.54l8.02.89c.77.08,1.39.71,1.46,1.48l.92,10.23c.02.28.26.49.54.49s.52-.21.54-.49l.92-10.24c.07-.77.68-1.4,1.46-1.48l8.02-.89c.27-.03.48-.26.48-.54s-.21-.51-.48-.54Zm-8.14.89c-1.28.14-2.3,1.18-2.42,2.47l-.38,4.24-.38-4.24c-.12-1.29-1.13-2.33-2.42-2.47l-3.14-.35,3.14-.35c1.28-.14,2.3-1.18,2.42-2.47h0s.38-4.24.38-4.24l.38,4.24c.12,1.29,1.13,2.33,2.42,2.47l3.14.35-3.14.35ZM336.41,59.03l-11.5-1.27c-1.22-.13-2.19-1.12-2.3-2.35l-1.32-14.67c-.03-.27-.25-.48-.53-.48s-.5.21-.53.48l-1.32,14.67c-.11,1.23-1.08,2.22-2.3,2.35l-11.49,1.27c-.27.03-.47.26-.47.53s.2.5.47.53l11.49,1.27c1.22.14,2.19,1.13,2.3,2.35l1.32,14.67c.02.27.25.48.53.48s.5-.21.53-.48l1.32-14.67c.11-1.23,1.08-2.22,2.3-2.35l11.5-1.27c.27-.03.47-.26.47-.53s-.2-.5-.47-.53Zm-11.61,1.27c-1.72.19-3.09,1.58-3.24,3.31l-.79,8.81-.79-8.81c-.16-1.73-1.52-3.12-3.24-3.31l-6.73-.74,6.73-.74c1.72-.19,3.09-1.58,3.24-3.31l.79-8.81.79,8.81c.16,1.73,1.52,3.12,3.24,3.31l6.73.74-6.73.74ZM16.45,89.52l5.11.57c.49.05.88.45.93.95l.59,6.53c.02.18.17.32.34.32s.33-.14.34-.32l.59-6.53c.04-.49.43-.89.93-.95l5.12-.57c.18-.02.31-.17.31-.34s-.13-.32-.31-.34l-5.12-.57c-.49-.05-.88-.45-.93-.95l-.59-6.53c-.02-.18-.17-.32-.34-.32s-.33.14-.34.32l-.59,6.53c-.05.49-.43.89-.93.95l-5.11.57c-.18.02-.31.17-.31.34s.13.32.31.34Zm5.19-.57c.82-.09,1.47-.75,1.54-1.57h0s.24-2.7.24-2.7l.24,2.7c.07.82.72,1.48,1.54,1.57l2,.22-2,.22c-.82.09-1.47.75-1.54,1.57l-.24,2.7-.24-2.7c-.07-.82-.72-1.48-1.54-1.57l-2-.22,2-.22ZM110.04,14.76l5.11.57c.49.05.88.45.93.95l.59,6.53c.02.18.17.32.34.32s.33-.14.34-.32l.59-6.53c.04-.49.43-.89.93-.95l5.12-.57c.18-.02.31-.17.31-.34s-.13-.32-.31-.34l-5.12-.57c-.49-.05-.88-.45-.93-.95l-.59-6.53c-.02-.18-.17-.32-.34-.32s-.33.14-.34.32l-.59,6.53c-.05.49-.43.89-.93.95l-5.11.57c-.18.02-.31.17-.31.34s.13.32.31.34Zm5.19-.57c.82-.09,1.47-.75,1.54-1.57h0s.24-2.7.24-2.7l.24,2.7c.07.82.72,1.48,1.54,1.57l2,.22-2,.22c-.82.09-1.47.75-1.54,1.57l-.24,2.7-.24-2.7c-.07-.82-.72-1.48-1.54-1.57l-2-.22,2-.22ZM36.2,105.95l5.11.57c.49.05.88.45.93.95l.59,6.53c.02.18.17.32.34.32s.33-.14.34-.32l.59-6.53c.04-.49.43-.89.93-.95l5.12-.57c.18-.02.31-.17.31-.34s-.13-.32-.31-.34l-5.12-.57c-.49-.05-.88-.45-.93-.95l-.59-6.53c-.02-.18-.17-.32-.34-.32s-.33.14-.34.32l-.59,6.53c-.05.49-.43.89-.93.95l-5.11.57c-.18.02-.31.17-.31.34s.13.32.31.34Zm5.19-.57c.82-.09,1.47-.75,1.54-1.57h0s.24-2.7.24-2.7l.24,2.7c.07.82.72,1.48,1.54,1.57l2,.22-2,.22c-.82.09-1.47.75-1.54,1.57l-.24,2.7-.24-2.7c-.07-.82-.72-1.48-1.54-1.57l-2-.22,2-.22Zm341.44,1.57l5.45.6c.53.06.94.48.99,1.01l.63,6.95c.02.19.18.34.37.34s.35-.14.37-.34l.63-6.96c.05-.53.46-.95.99-1.01l5.45-.6c.19-.02.33-.18.33-.37s-.14-.35-.33-.37l-5.45-.6c-.53-.06-.94-.48-.99-1.01l-.63-6.95c-.02-.19-.18-.34-.37-.34s-.35.14-.37.34l-.63,6.96c-.05.53-.46.95-.99,1.01l-5.45.6c-.19.02-.33.18-.33.37s.14.35.33.37Zm5.53-.6c.87-.1,1.56-.8,1.64-1.68h0s.26-2.88.26-2.88l.26,2.88c.08.88.77,1.58,1.64,1.68l2.13.24-2.13.24c-.87.1-1.56.8-1.64,1.68l-.26,2.88-.26-2.88c-.08-.88-.77-1.58-1.64-1.68l-2.13-.24,2.13-.24Zm-125.92-79.7l4.74.52c.46.05.82.42.86.88l.55,6.05c.02.17.15.29.32.29s.3-.13.32-.29l.55-6.05c.04-.46.4-.83.86-.88l4.74-.52c.16-.02.29-.16.29-.32s-.12-.3-.29-.32l-4.74-.52c-.46-.05-.82-.42-.86-.88l-.55-6.05c-.02-.17-.15-.29-.32-.29s-.3.13-.32.29l-.55,6.05c-.04.46-.4.83-.86.88l-4.74.52c-.16.02-.29.16-.29.32s.12.3.29.32Zm4.81-.52c.76-.08,1.36-.7,1.43-1.46l.23-2.5.23,2.5c.07.76.67,1.37,1.43,1.46l1.86.2-1.86.21c-.76.08-1.36.7-1.43,1.46l-.23,2.5-.23-2.5c-.07-.76-.67-1.37-1.43-1.46l-1.86-.21,1.86-.2Zm87.75-2.35l5.56.62c.54.06.96.49,1.01,1.03l.64,7.1c.02.19.18.34.38.34s.36-.15.38-.34l.64-7.1c.05-.54.47-.97,1.01-1.03l5.56-.62c.19-.02.34-.18.34-.37s-.14-.35-.34-.37l-5.56-.61c-.54-.06-.96-.49-1.01-1.03l-.64-7.1c-.02-.19-.18-.34-.38-.34s-.36.15-.38.34l-.64,7.1c-.05.54-.47.97-1.01,1.03l-5.56.61c-.19.02-.34.18-.34.37s.14.35.34.37Zm5.65-.62c.89-.1,1.59-.82,1.68-1.71l.26-2.94.26,2.94c.08.89.79,1.61,1.68,1.71l2.18.24-2.18.24c-.89.1-1.6.82-1.68,1.71l-.26,2.94-.26-2.94c-.08-.89-.79-1.61-1.68-1.71l-2.18-.24,2.18-.24Zm86.16,174.79l-4.33-.48c-.42-.04-.75-.38-.78-.8l-.5-5.52c-.01-.15-.14-.27-.29-.27s-.28.12-.29.27l-.5,5.52c-.04.42-.37.75-.79.8l-4.32.48c-.15.02-.26.14-.26.29s.11.27.26.29l4.32.48c.42.05.75.38.79.8l.5,5.52c.01.15.14.27.29.27s.28-.12.29-.27l.5-5.52c.04-.42.37-.75.78-.8l4.33-.48c.15-.02.26-.14.26-.29s-.11-.27-.26-.29Zm-4.39.48c-.69.08-1.24.64-1.3,1.33l-.21,2.28-.21-2.28c-.06-.7-.61-1.25-1.3-1.33l-1.69-.19,1.69-.19c.69-.08,1.24-.64,1.3-1.33h0s.21-2.28.21-2.28l.21,2.28c.06.7.61,1.25,1.3,1.33l1.69.19-1.69.19Zm-412.02-2.97l-5.12-.57c-.49-.05-.88-.45-.93-.95l-.59-6.53c-.02-.18-.17-.32-.34-.32s-.33.14-.34.32l-.59,6.53c-.05.49-.43.89-.93.95l-5.11.57c-.18.02-.31.17-.31.34s.13.32.31.34l5.11.57c.49.05.88.45.93.95l.59,6.53c.02.18.16.32.34.32s.33-.14.34-.32l.59-6.53c.04-.49.43-.89.93-.95l5.12-.57c.18-.02.31-.17.31-.34s-.13-.32-.31-.34Zm-5.19.57c-.82.09-1.47.75-1.54,1.57l-.24,2.7-.24-2.7c-.07-.82-.72-1.48-1.54-1.57l-2-.22,2-.22c.82-.09,1.47-.75,1.54-1.57h0s.24-2.7.24-2.7l.24,2.7c.07.82.72,1.48,1.54,1.57l2,.22-2,.22Zm397.54-30.54l-8.01-.88c-.77-.09-1.38-.71-1.45-1.48l-.92-10.22c-.03-.28-.26-.49-.54-.49s-.51.21-.54.49l-.92,10.22c-.07.77-.68,1.4-1.45,1.48l-8.01.88c-.27.03-.48.26-.48.54s.21.51.48.54l8.01.89c.77.09,1.38.71,1.45,1.48l.92,10.22c.03.28.26.49.54.49s.51-.21.54-.49l.92-10.22c.07-.77.68-1.4,1.45-1.48l8.01-.89c.27-.03.48-.26.48-.54s-.21-.51-.48-.54Zm-8.13.89c-1.28.14-2.3,1.18-2.41,2.46l-.38,4.23-.38-4.23c-.12-1.28-1.13-2.32-2.41-2.46l-3.14-.35,3.14-.35c1.28-.14,2.3-1.18,2.41-2.46l.38-4.23.38,4.23c.12,1.28,1.13,2.32,2.41,2.46l3.13.35-3.13.35ZM48,8.35l-5.12-.57c-.49-.05-.88-.45-.93-.95l-.59-6.53c-.02-.18-.17-.32-.34-.32s-.33.14-.34.32l-.59,6.53c-.05.49-.43.89-.93.95l-5.11.57c-.18.02-.31.17-.31.34s.13.32.31.34l5.11.57c.49.05.88.45.93.95l.59,6.53c.02.18.16.31.34.31s.33-.14.34-.31l.59-6.53c.04-.49.43-.89.93-.95l5.12-.57c.18-.02.31-.17.31-.34s-.13-.32-.31-.34Zm-5.19.57c-.82.09-1.47.75-1.54,1.57l-.24,2.7-.24-2.7c-.07-.82-.72-1.48-1.54-1.57l-2-.22,2-.22c.82-.09,1.47-.75,1.54-1.57h0s.24-2.7.24-2.7l.24,2.7c.07.82.72,1.48,1.54,1.57l2,.22-2,.22Zm402.84,69.19l-11.16-1.23c-1.19-.13-2.13-1.09-2.24-2.28l-1.28-14.23c-.02-.27-.25-.47-.51-.47s-.49.2-.51.47l-1.28,14.23c-.11,1.19-1.05,2.15-2.24,2.28l-11.15,1.23c-.26.03-.46.25-.46.51s.2.48.46.51l11.15,1.23c1.19.13,2.13,1.09,2.24,2.28l1.28,14.23c.02.27.25.47.51.47s.49-.2.51-.47l1.28-14.23c.11-1.19,1.05-2.15,2.24-2.28l11.16-1.23c.26-.03.46-.25.46-.51s-.2-.48-.46-.51Zm-11.27,1.23c-1.67.18-2.99,1.53-3.15,3.21l-.77,8.55-.77-8.55c-.15-1.68-1.48-3.03-3.15-3.21l-6.53-.72,6.53-.72c1.67-.18,3-1.53,3.15-3.21l.77-8.55.77,8.55c.15,1.68,1.47,3.03,3.15,3.21l6.54.72-6.54.72ZM79.88,33.52l-8.86-.98c-.85-.09-1.53-.78-1.61-1.64l-1.02-11.3c-.03-.31-.29-.55-.6-.55s-.57.24-.6.55l-1.02,11.3c-.08.85-.75,1.55-1.61,1.64l-8.86.98c-.3.04-.53.29-.53.6s.23.56.53.6l8.86.98c.85.09,1.53.78,1.61,1.64l1.02,11.3c.03.31.29.55.6.55s.57-.24.6-.55l1.02-11.3c.08-.85.75-1.55,1.61-1.64l8.86-.98c.3-.04.53-.29.53-.6s-.23-.56-.53-.6Zm-8.99.98c-1.42.16-2.54,1.3-2.67,2.72l-.42,4.68-.42-4.68c-.13-1.42-1.25-2.57-2.67-2.72l-3.47-.38,3.47-.38c1.42-.16,2.54-1.3,2.67-2.72h0s.42-4.68.42-4.68l.42,4.68c.13,1.42,1.25,2.57,2.67,2.72l3.47.38-3.47.38Z"/>
  </g>
</svg>